<mxfile host="app.diagrams.net" modified="2023-06-24T09:32:57.494Z" agent="Mozilla/5.0 (Windows NT 10.0; Win64; x64) AppleWebKit/537.36 (KHTML, like Gecko) Chrome/114.0.0.0 Safari/537.36 Edg/114.0.1823.43" etag="HZu--icUMziRxacdPAfv" version="21.5.0" type="github">
  <diagram id="C5RBs43oDa-KdzZeNtuy" name="Page-1">
    <mxGraphModel dx="1619" dy="796" grid="1" gridSize="10" guides="1" tooltips="1" connect="1" arrows="1" fold="1" page="1" pageScale="1" pageWidth="827" pageHeight="1169" math="0" shadow="0">
      <root>
        <mxCell id="WIyWlLk6GJQsqaUBKTNV-0" />
        <mxCell id="WIyWlLk6GJQsqaUBKTNV-1" parent="WIyWlLk6GJQsqaUBKTNV-0" />
        <mxCell id="VkSfUGltf5ocZ3olBUT9-3" value="" style="edgeStyle=orthogonalEdgeStyle;rounded=0;orthogonalLoop=1;jettySize=auto;html=1;" parent="WIyWlLk6GJQsqaUBKTNV-1" source="WIyWlLk6GJQsqaUBKTNV-3" target="VkSfUGltf5ocZ3olBUT9-2" edge="1">
          <mxGeometry relative="1" as="geometry" />
        </mxCell>
        <mxCell id="WIyWlLk6GJQsqaUBKTNV-3" value="获取AccessToken" style="rounded=1;whiteSpace=wrap;html=1;fontSize=12;glass=0;strokeWidth=1;shadow=0;" parent="WIyWlLk6GJQsqaUBKTNV-1" vertex="1">
          <mxGeometry x="160" y="104" width="120" height="40" as="geometry" />
        </mxCell>
        <mxCell id="VkSfUGltf5ocZ3olBUT9-6" value="" style="edgeStyle=orthogonalEdgeStyle;rounded=0;orthogonalLoop=1;jettySize=auto;html=1;" parent="WIyWlLk6GJQsqaUBKTNV-1" source="VkSfUGltf5ocZ3olBUT9-2" target="VkSfUGltf5ocZ3olBUT9-5" edge="1">
          <mxGeometry relative="1" as="geometry" />
        </mxCell>
        <mxCell id="VkSfUGltf5ocZ3olBUT9-15" style="edgeStyle=orthogonalEdgeStyle;rounded=0;orthogonalLoop=1;jettySize=auto;html=1;exitX=1;exitY=0.5;exitDx=0;exitDy=0;entryX=0;entryY=0.5;entryDx=0;entryDy=0;" parent="WIyWlLk6GJQsqaUBKTNV-1" source="VkSfUGltf5ocZ3olBUT9-2" target="VkSfUGltf5ocZ3olBUT9-13" edge="1">
          <mxGeometry relative="1" as="geometry">
            <Array as="points">
              <mxPoint x="350" y="225" />
              <mxPoint x="350" y="440" />
            </Array>
          </mxGeometry>
        </mxCell>
        <mxCell id="VkSfUGltf5ocZ3olBUT9-2" value="当前AccessToken&lt;br&gt;是否有效" style="rhombus;whiteSpace=wrap;html=1;rounded=1;glass=0;strokeWidth=1;shadow=0;" parent="WIyWlLk6GJQsqaUBKTNV-1" vertex="1">
          <mxGeometry x="158" y="185" width="125" height="80" as="geometry" />
        </mxCell>
        <mxCell id="VkSfUGltf5ocZ3olBUT9-8" value="" style="edgeStyle=orthogonalEdgeStyle;rounded=0;orthogonalLoop=1;jettySize=auto;html=1;" parent="WIyWlLk6GJQsqaUBKTNV-1" source="VkSfUGltf5ocZ3olBUT9-5" target="VkSfUGltf5ocZ3olBUT9-7" edge="1">
          <mxGeometry relative="1" as="geometry" />
        </mxCell>
        <mxCell id="VkSfUGltf5ocZ3olBUT9-17" style="edgeStyle=orthogonalEdgeStyle;rounded=0;orthogonalLoop=1;jettySize=auto;html=1;exitX=0;exitY=0.5;exitDx=0;exitDy=0;entryX=0;entryY=0.5;entryDx=0;entryDy=0;" parent="WIyWlLk6GJQsqaUBKTNV-1" source="VkSfUGltf5ocZ3olBUT9-5" target="VkSfUGltf5ocZ3olBUT9-11" edge="1">
          <mxGeometry relative="1" as="geometry">
            <Array as="points">
              <mxPoint x="90" y="340" />
              <mxPoint x="90" y="650" />
            </Array>
          </mxGeometry>
        </mxCell>
        <mxCell id="VkSfUGltf5ocZ3olBUT9-5" value="是否可以&lt;br&gt;刷新Token" style="rhombus;whiteSpace=wrap;html=1;rounded=1;glass=0;strokeWidth=1;shadow=0;" parent="WIyWlLk6GJQsqaUBKTNV-1" vertex="1">
          <mxGeometry x="155" y="300" width="130" height="80" as="geometry" />
        </mxCell>
        <mxCell id="VkSfUGltf5ocZ3olBUT9-10" value="" style="edgeStyle=orthogonalEdgeStyle;rounded=0;orthogonalLoop=1;jettySize=auto;html=1;" parent="WIyWlLk6GJQsqaUBKTNV-1" source="VkSfUGltf5ocZ3olBUT9-7" target="VkSfUGltf5ocZ3olBUT9-9" edge="1">
          <mxGeometry relative="1" as="geometry" />
        </mxCell>
        <mxCell id="VkSfUGltf5ocZ3olBUT9-19" style="edgeStyle=orthogonalEdgeStyle;rounded=0;orthogonalLoop=1;jettySize=auto;html=1;exitX=1;exitY=0.5;exitDx=0;exitDy=0;" parent="WIyWlLk6GJQsqaUBKTNV-1" source="VkSfUGltf5ocZ3olBUT9-7" target="VkSfUGltf5ocZ3olBUT9-13" edge="1">
          <mxGeometry relative="1" as="geometry" />
        </mxCell>
        <mxCell id="VkSfUGltf5ocZ3olBUT9-7" value="通过RefreshToken&lt;br&gt;刷新token" style="whiteSpace=wrap;html=1;rounded=1;glass=0;strokeWidth=1;shadow=0;" parent="WIyWlLk6GJQsqaUBKTNV-1" vertex="1">
          <mxGeometry x="160" y="410" width="120" height="60" as="geometry" />
        </mxCell>
        <mxCell id="VkSfUGltf5ocZ3olBUT9-12" value="" style="edgeStyle=orthogonalEdgeStyle;rounded=0;orthogonalLoop=1;jettySize=auto;html=1;" parent="WIyWlLk6GJQsqaUBKTNV-1" source="VkSfUGltf5ocZ3olBUT9-9" target="VkSfUGltf5ocZ3olBUT9-11" edge="1">
          <mxGeometry relative="1" as="geometry" />
        </mxCell>
        <mxCell id="VkSfUGltf5ocZ3olBUT9-9" value="刷新Token&lt;br&gt;是否成功" style="rhombus;whiteSpace=wrap;html=1;rounded=1;glass=0;strokeWidth=1;shadow=0;" parent="WIyWlLk6GJQsqaUBKTNV-1" vertex="1">
          <mxGeometry x="180" y="510" width="80" height="80" as="geometry" />
        </mxCell>
        <mxCell id="VkSfUGltf5ocZ3olBUT9-20" style="edgeStyle=orthogonalEdgeStyle;rounded=0;orthogonalLoop=1;jettySize=auto;html=1;exitX=1;exitY=0.5;exitDx=0;exitDy=0;entryX=0;entryY=0.5;entryDx=0;entryDy=0;" parent="WIyWlLk6GJQsqaUBKTNV-1" source="VkSfUGltf5ocZ3olBUT9-11" target="VkSfUGltf5ocZ3olBUT9-13" edge="1">
          <mxGeometry relative="1" as="geometry">
            <Array as="points">
              <mxPoint x="350" y="650" />
              <mxPoint x="350" y="440" />
            </Array>
          </mxGeometry>
        </mxCell>
        <mxCell id="VkSfUGltf5ocZ3olBUT9-11" value="向用户请求AA授权" style="whiteSpace=wrap;html=1;rounded=1;glass=0;strokeWidth=1;shadow=0;" parent="WIyWlLk6GJQsqaUBKTNV-1" vertex="1">
          <mxGeometry x="160" y="620" width="120" height="60" as="geometry" />
        </mxCell>
        <mxCell id="VkSfUGltf5ocZ3olBUT9-13" value="返回AccessToken" style="rounded=1;whiteSpace=wrap;html=1;fontSize=12;glass=0;strokeWidth=1;shadow=0;" parent="WIyWlLk6GJQsqaUBKTNV-1" vertex="1">
          <mxGeometry x="420" y="420" width="120" height="40" as="geometry" />
        </mxCell>
        <mxCell id="tULDjytNDSKDQ0tiMC_3-2" value="" style="edgeStyle=orthogonalEdgeStyle;rounded=0;orthogonalLoop=1;jettySize=auto;html=1;" edge="1" parent="WIyWlLk6GJQsqaUBKTNV-1" source="tULDjytNDSKDQ0tiMC_3-0" target="tULDjytNDSKDQ0tiMC_3-1">
          <mxGeometry relative="1" as="geometry" />
        </mxCell>
        <mxCell id="tULDjytNDSKDQ0tiMC_3-0" value="APP下发航线任务" style="rounded=1;whiteSpace=wrap;html=1;fontSize=12;glass=0;strokeWidth=1;shadow=0;" vertex="1" parent="WIyWlLk6GJQsqaUBKTNV-1">
          <mxGeometry x="340" y="760" width="120" height="40" as="geometry" />
        </mxCell>
        <mxCell id="tULDjytNDSKDQ0tiMC_3-6" style="edgeStyle=orthogonalEdgeStyle;rounded=0;orthogonalLoop=1;jettySize=auto;html=1;exitX=0.5;exitY=1;exitDx=0;exitDy=0;entryX=0.5;entryY=0;entryDx=0;entryDy=0;" edge="1" parent="WIyWlLk6GJQsqaUBKTNV-1" source="tULDjytNDSKDQ0tiMC_3-1" target="tULDjytNDSKDQ0tiMC_3-5">
          <mxGeometry relative="1" as="geometry" />
        </mxCell>
        <mxCell id="tULDjytNDSKDQ0tiMC_3-1" value="创建飞行计划" style="rounded=1;whiteSpace=wrap;html=1;fontSize=12;glass=0;strokeWidth=1;shadow=0;" vertex="1" parent="WIyWlLk6GJQsqaUBKTNV-1">
          <mxGeometry x="340" y="840" width="120" height="40" as="geometry" />
        </mxCell>
        <mxCell id="tULDjytNDSKDQ0tiMC_3-15" style="edgeStyle=orthogonalEdgeStyle;rounded=0;orthogonalLoop=1;jettySize=auto;html=1;exitX=0.5;exitY=1;exitDx=0;exitDy=0;" edge="1" parent="WIyWlLk6GJQsqaUBKTNV-1" source="tULDjytNDSKDQ0tiMC_3-3" target="tULDjytNDSKDQ0tiMC_3-8">
          <mxGeometry relative="1" as="geometry" />
        </mxCell>
        <mxCell id="tULDjytNDSKDQ0tiMC_3-3" value="开始飞行计划" style="rounded=1;whiteSpace=wrap;html=1;fontSize=12;glass=0;strokeWidth=1;shadow=0;" vertex="1" parent="WIyWlLk6GJQsqaUBKTNV-1">
          <mxGeometry x="340" y="1020" width="120" height="40" as="geometry" />
        </mxCell>
        <mxCell id="tULDjytNDSKDQ0tiMC_3-7" style="edgeStyle=orthogonalEdgeStyle;rounded=0;orthogonalLoop=1;jettySize=auto;html=1;exitX=0.5;exitY=1;exitDx=0;exitDy=0;entryX=0.5;entryY=0;entryDx=0;entryDy=0;" edge="1" parent="WIyWlLk6GJQsqaUBKTNV-1" source="tULDjytNDSKDQ0tiMC_3-5" target="tULDjytNDSKDQ0tiMC_3-3">
          <mxGeometry relative="1" as="geometry" />
        </mxCell>
        <mxCell id="tULDjytNDSKDQ0tiMC_3-5" value="创建飞行计划&lt;br&gt;是否成功" style="rhombus;whiteSpace=wrap;html=1;rounded=1;glass=0;strokeWidth=1;shadow=0;" vertex="1" parent="WIyWlLk6GJQsqaUBKTNV-1">
          <mxGeometry x="355" y="910" width="90" height="80" as="geometry" />
        </mxCell>
        <mxCell id="tULDjytNDSKDQ0tiMC_3-10" value="" style="edgeStyle=orthogonalEdgeStyle;rounded=0;orthogonalLoop=1;jettySize=auto;html=1;" edge="1" parent="WIyWlLk6GJQsqaUBKTNV-1" source="tULDjytNDSKDQ0tiMC_3-8">
          <mxGeometry relative="1" as="geometry">
            <mxPoint x="400" y="1200" as="targetPoint" />
          </mxGeometry>
        </mxCell>
        <mxCell id="tULDjytNDSKDQ0tiMC_3-8" value="开始飞行计划&lt;br&gt;是否成功" style="rhombus;whiteSpace=wrap;html=1;rounded=1;glass=0;strokeWidth=1;shadow=0;" vertex="1" parent="WIyWlLk6GJQsqaUBKTNV-1">
          <mxGeometry x="355" y="1089" width="90" height="80" as="geometry" />
        </mxCell>
        <mxCell id="tULDjytNDSKDQ0tiMC_3-14" style="edgeStyle=orthogonalEdgeStyle;rounded=0;orthogonalLoop=1;jettySize=auto;html=1;exitX=0.5;exitY=1;exitDx=0;exitDy=0;entryX=0.5;entryY=0;entryDx=0;entryDy=0;" edge="1" parent="WIyWlLk6GJQsqaUBKTNV-1" source="tULDjytNDSKDQ0tiMC_3-11" target="tULDjytNDSKDQ0tiMC_3-13">
          <mxGeometry relative="1" as="geometry" />
        </mxCell>
        <mxCell id="tULDjytNDSKDQ0tiMC_3-11" value="开始遥测数据上报" style="rounded=1;whiteSpace=wrap;html=1;fontSize=12;glass=0;strokeWidth=1;shadow=0;" vertex="1" parent="WIyWlLk6GJQsqaUBKTNV-1">
          <mxGeometry x="340" y="1200" width="120" height="40" as="geometry" />
        </mxCell>
        <mxCell id="tULDjytNDSKDQ0tiMC_3-13" value="连接Outbound" style="rounded=1;whiteSpace=wrap;html=1;fontSize=12;glass=0;strokeWidth=1;shadow=0;" vertex="1" parent="WIyWlLk6GJQsqaUBKTNV-1">
          <mxGeometry x="340" y="1280" width="120" height="40" as="geometry" />
        </mxCell>
      </root>
    </mxGraphModel>
  </diagram>
</mxfile>
